<svg width="148" height="85" viewBox="0 0 148 85" fill="none" xmlns="http://www.w3.org/2000/svg">
<path d="M28.8323 67.8741C45.7536 67.8741 57.7591 56.9084 57.7591 40.6488V0H39.1363V40.2707C39.1363 46.7934 34.9769 50.9528 28.8323 50.9528C22.7823 50.9528 18.6228 46.7934 18.6228 40.2707V0H0V40.6488C0 56.9084 12.0056 67.8741 28.8323 67.8741Z" fill="black"/>
<path d="M110.091 15.1252L107.822 19.2846C103.663 15.5978 98.2743 13.5181 92.2242 13.5181C76.5319 13.5181 65.4716 24.862 65.4716 40.6488C65.4716 56.6248 76.6264 67.9687 92.2242 67.9687C96.8563 67.9687 101.016 66.7397 104.608 64.5655V84.6063H122.002V15.1252H110.091ZM94.5875 52.3708C87.9703 52.3708 83.1492 47.3606 83.1492 40.6488C83.1492 34.0316 87.9703 29.0214 94.5875 29.0214C101.11 29.0214 105.931 34.0316 105.931 40.6488C105.931 47.3606 101.11 52.3708 94.5875 52.3708Z" fill="black"/>
<path d="M129.817 84.6063H147.192V68.0958H129.817V84.6063Z" fill="#FB2249"/>
</svg>
